<svg id="Ebene_1" xmlns="http://www.w3.org/2000/svg" viewBox="0 0 2000 2000"><defs><style>.cls-1{fill:#fff;stroke:#000;stroke-miterlimit:10;}</style></defs><title>MenuMountain_trans</title><path d="M1000.1,51.16a957.09,957.09,0,0,1,191.51,19.3,944.39,944.39,0,0,1,339.61,142.91,952.94,952.94,0,0,1,344.25,418,945,945,0,0,1,55.33,178.26,959.81,959.81,0,0,1,0,383,944.59,944.59,0,0,1-142.91,339.61,953,953,0,0,1-418,344.24,945.2,945.2,0,0,1-178.26,55.34,959.81,959.81,0,0,1-383,0A944.64,944.64,0,0,1,469,1788.94a952.84,952.84,0,0,1-344.24-418A945.11,945.11,0,0,1,69.4,1192.67a959.81,959.81,0,0,1,0-383A944.64,944.64,0,0,1,212.32,470a952.86,952.86,0,0,1,418-344.25A945.17,945.17,0,0,1,808.59,70.46a957.09,957.09,0,0,1,191.51-19.3m0-50C447.82,1.16.1,448.87.1,1001.16s447.72,1000,1000,1000,1000-447.72,1000-1000-447.71-1000-1000-1000Z" transform="translate(-0.1 -1.16)"/><path class="cls-1" d="M1000,1000" transform="translate(-0.1 -1.16)"/><path d="M1550.68,1232.76l-352.4-531.68a30.51,30.51,0,0,0-50.78,0l-69.8,100-25.49,36.31L913.79,629.63a37.65,37.65,0,0,0-62.67,0L449.36,1232.71c-11.78,17.67.9,41.34,22.12,41.34h1057A26.6,26.6,0,0,0,1550.68,1232.76ZM1043.33,932.87l.08-.12.21.32,108.93-167.45a25.14,25.14,0,0,1,42,0L1289,910.87l100.85,155.75L1237.79,924v0l-9.49,16.92-3,5.17-39.5-43.39-2.53-2.81v0l-.24-.26-25.81,26.74-8.12,8.25-13.6-26.15-3.06-6.07-.07.06-.16-.33-68.28,60.09,33.92,53.17,32.23,51.12L961.5,898.78l0-.06-8.8-10.11-1.87-2.26,0,.07-.23-.27-25.46,35.18-10.38,14.09-24.09-41.7-13.16-23.18-.11.2-.21-.36L853.92,917.2l-14.46,28.71L820,904.35l-.11-.23h0l-.15-.32-27.26,12.74-79.74,76.23-77.47,73.58L861.73,718a25.1,25.1,0,0,1,42,0l99.5,153Z" transform="translate(-0.1 -1.16)"/></svg>